<?xml version="1.0" standalone="no"?>
<!DOCTYPE svg PUBLIC "-//W3C//DTD SVG 20010904//EN"
 "http://www.w3.org/TR/2001/REC-SVG-20010904/DTD/svg10.dtd">
<svg version="1.0" xmlns="http://www.w3.org/2000/svg"
 width="140.000000pt" height="140.000000pt" viewBox="0 0 140.000000 140.000000"
 preserveAspectRatio="xMidYMid meet">
<metadata>
Created by potrace 1.11, written by Peter Selinger 2001-2013
</metadata>
<g transform="translate(0.000000,140.000000) scale(0.100000,-0.100000)"
fill="#000000" stroke="none">
<path d="M738 1054 c-3 -33 -14 -76 -23 -95 -40 -77 -63 -96 -173 -144 -106
-46 -272 -147 -272 -166 0 -5 15 -9 33 -9 17 0 68 -5 112 -11 81 -11 81 -11
143 20 137 69 194 155 200 305 2 50 0 107 -5 126 -9 34 -10 34 -15 -26z"/>
<path d="M865 933 c0 -112 -3 -134 -23 -178 -27 -59 -61 -98 -120 -136 l-44
-28 39 -8 c21 -4 108 -8 193 -8 125 0 166 4 210 18 67 23 146 75 182 120 l26
34 -121 81 c-67 45 -169 115 -227 156 -58 41 -107 75 -110 75 -3 1 -5 -56 -5
-126z"/>
<path d="M147 518 c-24 -35 -48 -69 -52 -77 -9 -16 -6 -14 63 32 23 16 76 43
118 61 85 37 81 46 -21 46 l-64 0 -44 -62z"/>
<path d="M415 506 c-144 -44 -205 -69 -268 -110 -53 -34 -134 -112 -126 -120
3 -3 45 9 94 25 163 55 193 59 545 59 352 0 402 6 505 56 53 26 167 121 132
110 -127 -40 -134 -41 -277 -40 -109 1 -183 7 -297 27 -84 15 -163 27 -175 26
-13 0 -72 -15 -133 -33z"/>
</g>
</svg>
