<?xml version="1.0" encoding="utf-8"?>
<!-- Generator: Adobe Illustrator 23.0.6, SVG Export Plug-In . SVG Version: 6.00 Build 0)  -->
<svg version="1.1" xmlns="http://www.w3.org/2000/svg" xmlns:xlink="http://www.w3.org/1999/xlink" x="0px" y="0px"
	 viewBox="0 0 396.85 311.81" style="enable-background:new 0 0 396.85 311.81;" xml:space="preserve">
<style type="text/css">
	.st0{display:none;}
	.st1{display:inline;fill:#161615;}
	.st2{fill:#1B2875;}
	.st3{fill:#FFFFFF;}
	.st4{fill:#148EDF;}
	.st5{fill:#161615;}
	.st6{fill:none;}
</style>
<g id="Layer_2" class="st0">
</g>
<g id="Layer_1">
	<g>
		<path class="st5" d="M30.74,182.21c-2.85,0.3-4.91,2.1-5.75,6.79L8.17,289c-0.55,2.77,0.55,4.62,3.88,4.62h11.83
			c3.14,0,4.81-1.85,5.18-4.62l2.4-14.05h18.67L52.35,289c0.37,2.77,2.03,4.62,5.36,4.62h11.83c3.14,0,4.25-1.85,3.88-4.62
			l-12.78-75.13c-6.23-1.7-11.74-4.24-16.33-7.6C35.89,200.12,30.98,191.38,30.74,182.21z M34.79,256.29l6.47-36.97l5.92,36.97
			H34.79z"/>
		<path class="st5" d="M154.45,190.55c-2.95,3.14-6.83,5.36-11.91,5.36c-2.14,0-4.2-0.35-6.16-1.03l-1.96,61.41l-8.76-64.58
			c-4.36,9.08-12.49,16.31-22.97,20.54l-5.97,44.04l-1.33-41.69c-4.62,1.14-9.57,1.76-14.77,1.76c-1.49,0-2.95-0.05-4.39-0.12
			L82.66,289c0.37,2.77,1.85,4.62,5.18,4.62h16.45c3.33,0,4.99-1.85,5.36-4.62l4.62-43.81l1.29-14.05l1.48,14.05l4.44,43.81
			c0.37,2.77,2.03,4.62,5.36,4.62h16.45c3.33,0,4.81-1.85,5.18-4.62l8.51-96.03C156.08,192.28,155.23,191.47,154.45,190.55z"/>
		<path class="st5" d="M94.7,193.18l-0.2-6.39c-0.18-2.96-1.66-4.62-4.99-4.62H77.67c-3.14,0-4.44,1.66-4.07,4.62l0.84,9.5
			c1.85,0.43,3.84,0.68,6.02,0.68C86.31,196.97,91.12,195.64,94.7,193.18z"/>
		<path class="st5" d="M180.58,188.92c-0.37-0.42-0.71-0.86-1.06-1.3c-1.41,1.88-2.89,3.43-4.43,4.68L158.82,289
			c-0.55,2.77,0.55,4.62,3.88,4.62h11.83c3.14,0,4.81-1.85,5.18-4.62l1.85-14.05h13.68l1.85,14.05c0.37,2.77,2.03,4.62,5.36,4.62
			h11.83c3.14,0,4.25-1.85,3.88-4.62l-15.87-93.32c-2.15,0.79-4.16,1.07-5.91,1.07C190.66,196.76,185.05,193.97,180.58,188.92z
			 M183.96,256.29l3.33-26.43l1.11-11.65l1.11,11.65l3.33,26.43H183.96z"/>
		<path class="st5" d="M249.07,195.9c-4.42,0-8.46-1.72-11.61-4.89c-3.63,4-7.68,6.03-12.11,6.03c-0.37,0-0.73-0.03-1.1-0.06V289
			c0,2.77,1.29,4.62,4.62,4.62h11.65c3.33,0,4.62-1.85,4.62-4.62v-35.68h0.37l8.69,35.68c0.92,2.77,2.77,4.62,5.92,4.62h11.83
			c3.33,0,4.07-1.85,3.33-4.62l-10.72-43.07c6.47-5.92,10.35-15.16,10.35-28.65c0-14.08-4.41-23.46-11.27-28.99
			C259.85,192.97,255.1,195.9,249.07,195.9z M245.14,234.29v-33.46c5.17,0.55,8.69,3.7,8.69,16.45
			C253.82,230.59,250.31,234.11,245.14,234.29z"/>
		<path class="st5" d="M300.52,190.81c-3.65,4.04-7.83,6.09-12.53,6.09c-2.56,0-4.91-0.48-7-1.39V289c0,2.77,1.29,4.62,4.62,4.62
			h16.45c21.07,0,31.05-18.85,31.05-55.82c0-19.11-2.68-33.37-8.16-42.7c-2.81,1.17-5.76,1.79-8.84,1.79
			C310.11,196.9,304.77,194.68,300.52,190.81z M302.07,274.59h-0.18v-73.75h0.18c8.13,0,9.98,7.39,9.98,36.97
			C312.05,267.75,310.2,274.59,302.07,274.59z"/>
		<path class="st5" d="M371.38,230.59c-7.21-7.76-12.02-13.68-12.02-19.04c0-6.47,2.96-10.54,7.76-10.54c4.07,0,8.5,1.29,10.72,2.03
			c2.96,0.74,4.62-0.74,5.36-3.7l1.29-9.98c0.74-2.77,0-4.99-3.14-5.73c-4.62-1.29-8.87-1.66-15.34-1.66
			c-18.49,0-27.73,11.65-27.73,28.1c0,14.42,7.76,25.51,15.34,34.01c6.84,7.58,11.46,14.23,11.46,19.96
			c0,7.02-3.51,10.72-8.69,10.72c-4.25,0-7.95-1.66-9.98-2.22c-3.14-0.92-4.81,0.74-5.55,3.51l-1.29,10.17
			c-0.55,2.59-0.37,4.81,2.77,5.54c3.7,0.74,7.58,1.85,15.71,1.85c17.56,0,28.1-13.12,28.1-29.95
			C386.17,249.45,378.96,238.73,371.38,230.59z"/>
	</g>
	<g>
		<path class="st5" d="M88,140.47c-22.02-10.23-31.11-18.32-31.11-30.54c0-17.76,16.76-27.13,37.22-27.13
			c22.02,0,32.81,7.39,32.81,17.9c0,8.81-9.23,17.33-23.3,20.6c-1.85,0.43-2.56,1.28-2.56,2.13c0,1.7,4.83,3.55,8.52,3.55
			c17.33,0,33.1-13.35,33.1-25.71c0-17.61-25.57-25.99-48.86-25.99c-25.14,0-52.98,10.51-52.98,36.22
			c0,17.04,12.93,28.83,36.79,38.92c21.87,9.23,30.25,17.19,30.25,27.84c0,14.77-10.23,24.72-27.41,24.72
			c-16.33,0-26.7-11.36-26.7-21.73c0-6.68,4.12-13.35,10.37-16.33c1.28-0.57,1.85-1.42,1.85-2.27c0-3.69-8.38-4.26-12.64-2.7
			c-10.23,4.12-16.62,12.64-16.62,21.59c0,14.63,15.06,28.83,43.89,28.83c22.87,0,42.61-13.49,42.61-34.37
			C123.22,161.78,113,152.26,88,140.47z"/>
		<path class="st5" d="M245.37,108.66c-0.57,4.69,3.69,9.09,6.82,9.37c2.84,0.43,9.09-3.55,10.08-6.96
			c0.85-3.41-2.13-7.24-6.82-7.81C250.63,102.26,245.94,104.68,245.37,108.66z"/>
		<path class="st5" d="M342.82,144.17c-0.99,0-1.56,0.28-1.7,0.85c-3.27,21.45-13.64,38.21-22.44,38.21c-4.12,0-7.1-5.11-7.53-13.35
			c11.51-4.83,20.45-19.32,20.45-33.52c0-8.66-4.4-13.78-10.37-13.78c-10.51,0-25,13.78-25,41.48c0,3.78,0.49,7.27,1.37,10.41
			c-2.44,5.63-4.98,8.76-7.19,8.76c-3.27,0-0.57-11.22,2.41-24.29c4.12-19.03,2.98-24.15,0.43-27.84
			c-1.99-2.84-4.83-3.55-11.08-3.27c-5.82,0.28-7.24-0.28-7.24-5.54c0-5.11-0.85-6.82-3.41-6.82c-3.84,0-9.37,5.54-10.23,9.66
			c-0.99,5.82,1.99,8.66,6.96,9.8c-0.18,2.55-0.48,5.56-0.88,8.78c-0.06,0.09-0.11,0.2-0.12,0.31
			c-2.84,20.17-10.94,38.07-15.77,38.07c-6.39,0-3.12-25,5.82-53.27c1.14-3.41-13.78-4.83-15.34,0.85
			c-5.32,18.28-6.87,32.32-5.86,42.23c-2.67,6.81-5.61,11.46-8.2,11.46c-5.68,0-4.12-17.33-1.7-41.33l0.43-5.11
			c3.27,0.28,6.25,0.14,8.66-0.43c4.69-0.99,4.55-15.34,1.56-14.2c-2.42,0.85-5.4,1.85-8.66,2.56c0.99-7.39,2.27-14.63,3.55-22.73
			c0.57-3.41-13.21-3.41-14.63,2.27c-1.56,6.11-2.98,12.93-4.12,22.44c-1.41,0.1-2.82,0.13-4.13,0.14c0.75-2.42,1.42-4.84,2-7.24
			c3.23-13.54,2.73-24.48-1.11-29.68c14.75-6.42,42.76-2.53,72.44-3.28c19.74-0.49,31.5-8.7,38.36-16.95
			c-20.45,10.37-50.72,3.22-76-0.96c-18.06,5.87-41.34,8.55-54.59,29.01c-0.51,1.12-1.02,2.24-1.51,3.37
			c-3.34,6.35-6.4,14.59-8.72,24.4c-1.73,6.43-2.84,12.47-3.11,17.68c-1.2,9.74-0.76,18.14,0.76,25.05
			c-2.86,8.21-6.19,13.87-9.28,13.87c-1.7,0-2.27-1.85-2.27-4.97c0-6.25,2.56-17.61,5.26-30.68v-0.28c0-1.99-3.27-3.27-6.82-3.27
			c-3.84,0-7.95,1.42-8.52,4.83c-0.43,1.42-0.57,2.98-0.85,4.4c-2.41,12.93-6.11,29.97-10.94,29.97c-1.99,0-2.98-4.55-2.98-11.36
			c0-13.92,5.26-44.03,15.77-44.03c2.27,0,3.27,1.28,3.27,3.13c0,2.27-1.7,5.68-4.12,8.24c-0.14,0.14-0.14,0.28-0.14,0.43
			c0,0.99,2.98,1.7,6.25,1.7c6.82,0,9.66-3.41,9.66-7.1c0-5.4-5.97-11.36-14.77-11.36c-13.49,0-30.82,18.32-30.82,43.32
			c0,15.06,7.24,24.72,16.48,24.72c5.82,0,9.8-4.83,12.5-12.07c1.85,8.1,5.82,12.07,10.37,12.07c5.51,0,10.29-5.7,14.1-14.44
			c3.88,9.93,10.39,15.29,16.87,15.29c6.29,0,11.91-5.51,16.29-14.61c2.6,10.24,7.41,14.9,12.69,14.9c4.73,0,8.91-4.37,12.39-11.15
			c2.26,6.7,6.33,10.02,11.33,10.02c9.89,0,16.29-12.9,20.44-33.22c1.65-7.5,2.92-15,3.57-21.04h2.27c8.52,0,7.53,1.99,2.84,25
			c-3.27,15.91-2.27,30.26,9.8,30.26c4.84,0,8.86-3.82,12.16-10.18c3.56,6.38,9.27,10.18,15.97,10.18
			c13.64,0,25.14-16.62,29.12-44.74v-0.28C345.23,144.74,343.95,144.17,342.82,144.17z M322.93,128.4c1.71,0,2.84,2.7,2.84,7.1
			c0,12.07-6.11,23.44-14.63,28.55C311.85,148.43,316.68,128.4,322.93,128.4z M204.75,118.17c-3.27,12.36-8.1,25.28-13.78,35.79
			c0-3.55,0.43-7.67,0.85-11.93c0.7-6.18,1.55-12.14,2.49-17.66c0.08-0.41,0.71-3.38,5.17-22.64c0.49-1.5,0.97-2.82,1.45-3.96
			c0.89-1.72,2.07-3.19,3.51-4.45C208.15,93.62,207.84,106.65,204.75,118.17z M211.28,143.31c-0.86,9.62-0.82,17.64-0.12,24.2
			c-3.37,9.23-7.71,15.43-12.24,15.43c-4.55,0-7.39-6.96-7.95-18.47c5.64-7.94,11.58-19.48,15.91-31.59
			c0.39,0.26,0.85,0.48,1.41,0.62l3.69,0.99C211.85,137.35,211.57,140.19,211.28,143.31z"/>
		<path class="st5" d="M257.73,63.93c24.79,3.31,51.42,5.15,64.58-15.61c-6.33-3.73-15.28-9.21-20.46-13.34
			c-4.99-3.97-16.87-11.95-26.02-17.98C280.67,44.04,272.65,56.94,257.73,63.93z"/>
		<path class="st5" d="M264.1,9.36c-0.11-0.07-0.19-0.12-0.19-0.12c3.29,10.82-4.31,25.34-11.6,29.28
			c-7.21,3.89-19.14,5.94-35.91,19.96c6.7,0.23,14.3,1.22,22.5,2.58C258.53,53.65,270.92,41.93,264.1,9.36z"/>
		<path class="st5" d="M209.66,65.27c-3.55,4.21-7.14,9.41-10.58,15.19c8.04-7.12,17.66-10.97,26.66-14.48
			C219.83,65.26,214.44,64.98,209.66,65.27z"/>
	</g>
</g>
</svg>
