<?xml version="1.0" encoding="utf-8"?>
<svg version="1.1" xmlns="http://www.w3.org/2000/svg" xmlns:xlink="http://www.w3.org/1999/xlink" x="0px" y="0px"
	 viewBox="0 0 396.85 311.81" style="enable-background:new 0 0 396.85 311.81;" xml:space="preserve">
<style type="text/css">
	.secondary{fill:#1B2875;}
	.white{fill:#FFFFFF;}
	.primary{fill:#008EDF;}
</style>
<g>
	<g>
		<g>
			<path class="primary" d="M55.79,190.48c-0.74-5.18-3.14-6.84-6.47-6.84h-18.3c-3.33,0-5.73,1.66-6.65,6.84l-16.82,100
				c-0.55,2.77,0.55,4.62,3.88,4.62h11.83c3.14,0,4.81-1.85,5.17-4.62l2.4-14.05h18.67l2.22,14.05c0.37,2.77,2.03,4.62,5.36,4.62
				h11.83c3.14,0,4.25-1.85,3.88-4.62L55.79,190.48z M34.17,257.76l6.47-36.97l5.92,36.97H34.17z"/>
			<path class="primary" d="M152.43,183.64H140.6c-3.33,0-4.81,1.66-4.99,4.62l-2.22,69.5l-9.43-69.5c-0.18-1.11-0.55-2.22-1.11-2.96
				c-0.55-0.92-1.66-1.66-3.51-1.66h-9.43c-1.66,0-2.77,0.37-3.33,1.29c-0.92,0.92-1.29,1.85-1.48,3.33l-9.43,69.5l-2.22-69.5
				c-0.18-2.96-1.66-4.62-4.99-4.62H76.64c-3.14,0-4.44,1.66-4.07,4.62l9.06,102.22c0.37,2.77,1.85,4.62,5.18,4.62h16.45
				c3.33,0,4.99-1.85,5.36-4.62l4.62-43.81l1.29-14.05l1.48,14.05l4.44,43.81c0.37,2.77,2.03,4.62,5.36,4.62h16.45
				c3.33,0,4.81-1.85,5.18-4.62l9.06-102.22C156.86,185.3,155.57,183.64,152.43,183.64z"/>
			<path class="primary" d="M199.9,190.48c-0.74-5.18-3.33-6.84-6.65-6.84h-12.2c-3.33,0-5.73,1.66-6.65,6.84l-16.82,100
				c-0.55,2.77,0.55,4.62,3.88,4.62h11.83c3.14,0,4.81-1.85,5.18-4.62l1.85-14.05h13.68l1.85,14.05c0.37,2.77,2.03,4.62,5.36,4.62
				h11.83c3.14,0,4.25-1.85,3.88-4.62L199.9,190.48z M182.71,257.76l3.33-26.43l1.11-11.65l1.11,11.65l3.33,26.43H182.71z"/>
			<path class="primary" d="M263.62,247.41c6.47-5.92,10.35-15.16,10.35-28.65c0-25.14-14.05-35.31-31.05-35.31l-10.72,0.18h-4.25
				c-3.33,0-4.62,1.66-4.62,4.62v102.22c0,2.77,1.29,4.62,4.62,4.62h11.65c3.33,0,4.62-1.85,4.62-4.62V254.8h0.37l8.69,35.67
				c0.92,2.77,2.77,4.62,5.92,4.62h11.83c3.33,0,4.07-1.85,3.33-4.62L263.62,247.41z M244.21,235.76v-33.46
				c5.17,0.55,8.69,3.7,8.69,16.45C252.9,232.07,249.39,235.58,244.21,235.76z"/>
			<path class="primary" d="M301.14,183.45h-16.45c-3.33,0-4.62,1.85-4.62,4.62v102.4c0,2.77,1.29,4.62,4.62,4.62h16.45
				c21.07,0,31.05-18.85,31.05-55.82S322.21,183.45,301.14,183.45z M301.14,276.06h-0.18v-73.75h0.18c8.13,0,9.98,7.39,9.98,36.97
				C311.12,269.22,309.27,276.06,301.14,276.06z"/>
			<path class="primary" d="M369.91,232.07c-7.21-7.76-12.02-13.68-12.02-19.04c0-6.47,2.96-10.54,7.76-10.54
				c4.07,0,8.5,1.29,10.72,2.03c2.96,0.74,4.62-0.74,5.36-3.7l1.29-9.98c0.74-2.77,0-4.99-3.14-5.73
				c-4.62-1.29-8.87-1.66-15.34-1.66c-18.49,0-27.73,11.65-27.73,28.1c0,14.42,7.76,25.51,15.34,34.01
				c6.84,7.58,11.46,14.23,11.46,19.96c0,7.02-3.51,10.72-8.69,10.72c-4.25,0-7.95-1.66-9.98-2.22c-3.14-0.92-4.81,0.74-5.55,3.51
				l-1.29,10.17c-0.55,2.59-0.37,4.81,2.77,5.54c3.7,0.74,7.58,1.85,15.71,1.85c17.56,0,28.1-13.12,28.1-29.95
				C384.7,250.92,377.49,240.2,369.91,232.07z"/>
		</g>
		<g>
			<path class="secondary" d="M263.11,21.25c-0.11-0.07-0.19-0.12-0.19-0.12c3.29,10.82-4.31,25.34-11.6,29.28
				c-7.21,3.89-19.14,5.94-35.9,19.96c6.7,0.23,14.3,1.22,22.5,2.58C257.54,65.54,269.92,53.82,263.11,21.25z"/>
			<path class="secondary" d="M208.66,77.16c-3.55,4.21-7.14,9.41-10.58,15.19c8.04-7.12,17.66-10.97,26.66-14.48
				C218.84,77.15,213.45,76.87,208.66,77.16z"/>
			<path class="secondary" d="M256.74,75.82c24.79,3.31,51.42,5.15,64.58-15.61c-6.33-3.73-15.28-9.21-20.46-13.34
				c-4.99-3.97-16.87-11.95-26.02-17.98C279.68,55.93,271.66,68.83,256.74,75.82z"/>
			<g>
				<path class="secondary" d="M87.01,152.36c-22.02-10.23-31.11-18.32-31.11-30.54c0-17.76,16.76-27.13,37.22-27.13
					c22.02,0,32.81,7.39,32.81,17.9c0,8.81-9.23,17.33-23.29,20.6c-1.85,0.43-2.56,1.28-2.56,2.13c0,1.7,4.83,3.55,8.52,3.55
					c17.33,0,33.1-13.35,33.1-25.71c0-17.61-25.57-25.99-48.86-25.99c-25.14,0-52.98,10.51-52.98,36.22
					c0,17.04,12.93,28.83,36.79,38.92c21.87,9.23,30.26,17.19,30.26,27.84c0,14.77-10.23,24.72-27.41,24.72
					c-16.34,0-26.7-11.36-26.7-21.73c0-6.68,4.12-13.35,10.37-16.33c1.28-0.57,1.85-1.42,1.85-2.27c0-3.69-8.38-4.26-12.64-2.7
					c-10.23,4.12-16.62,12.64-16.62,21.59c0,14.63,15.06,28.83,43.89,28.83c22.87,0,42.61-13.49,42.61-34.37
					C122.23,173.67,112.01,164.15,87.01,152.36z"/>
				<path class="secondary" d="M244.38,120.55c-0.57,4.69,3.69,9.09,6.82,9.37c2.84,0.43,9.09-3.55,10.08-6.96
					c0.85-3.41-2.13-7.24-6.82-7.81C249.64,114.15,244.95,116.57,244.38,120.55z"/>
				<path class="secondary" d="M341.83,156.06c-0.99,0-1.56,0.28-1.7,0.85c-3.27,21.45-13.64,38.21-22.44,38.21
					c-4.12,0-7.1-5.11-7.53-13.35c11.51-4.83,20.45-19.32,20.45-33.52c0-8.66-4.4-13.78-10.37-13.78c-10.51,0-25,13.78-25,41.48
					c0,3.78,0.49,7.27,1.37,10.41c-2.44,5.63-4.98,8.76-7.19,8.76c-3.27,0-0.57-11.22,2.41-24.29c4.12-19.03,2.98-24.15,0.43-27.84
					c-1.99-2.84-4.83-3.55-11.08-3.27c-5.82,0.28-7.24-0.28-7.24-5.54c0-5.11-0.85-6.82-3.41-6.82c-3.84,0-9.37,5.54-10.23,9.66
					c-0.99,5.82,1.99,8.66,6.96,9.8c-0.18,2.55-0.48,5.56-0.88,8.78c-0.06,0.09-0.11,0.2-0.12,0.31
					c-2.84,20.17-10.94,38.07-15.77,38.07c-6.39,0-3.12-25,5.82-53.27c1.14-3.41-13.78-4.83-15.34,0.85
					c-5.32,18.28-6.87,32.32-5.86,42.23c-2.67,6.81-5.61,11.46-8.2,11.46c-5.68,0-4.12-17.33-1.7-41.33l0.43-5.11
					c3.27,0.28,6.25,0.14,8.66-0.43c4.69-0.99,4.55-15.34,1.56-14.2c-2.41,0.85-5.4,1.85-8.66,2.56c0.99-7.39,2.27-14.63,3.55-22.73
					c0.57-3.41-13.21-3.41-14.63,2.27c-1.56,6.11-2.98,12.93-4.12,22.44c-1.41,0.1-2.82,0.13-4.13,0.14c0.75-2.42,1.42-4.84,2-7.24
					c3.23-13.54,2.73-24.48-1.11-29.68c14.75-6.42,42.76-2.53,72.44-3.28c19.74-0.49,31.5-8.7,38.36-16.95
					c-20.45,10.37-50.72,3.22-76-0.96c-18.06,5.87-41.34,8.55-54.59,29.01c-0.51,1.12-1.02,2.24-1.51,3.37
					c-3.34,6.35-6.4,14.59-8.72,24.4c-1.73,6.43-2.84,12.47-3.11,17.67c-1.2,9.74-0.76,18.14,0.76,25.05
					c-2.86,8.21-6.19,13.87-9.28,13.87c-1.7,0-2.27-1.85-2.27-4.97c0-6.25,2.56-17.61,5.26-30.68v-0.28c0-1.99-3.27-3.27-6.82-3.27
					c-3.84,0-7.95,1.42-8.52,4.83c-0.43,1.42-0.57,2.98-0.85,4.4c-2.41,12.93-6.11,29.97-10.94,29.97c-1.99,0-2.98-4.55-2.98-11.36
					c0-13.92,5.26-44.03,15.77-44.03c2.27,0,3.27,1.28,3.27,3.12c0,2.27-1.7,5.68-4.12,8.24c-0.14,0.14-0.14,0.28-0.14,0.43
					c0,0.99,2.98,1.7,6.25,1.7c6.82,0,9.66-3.41,9.66-7.1c0-5.4-5.97-11.36-14.77-11.36c-13.49,0-30.82,18.32-30.82,43.32
					c0,15.06,7.24,24.72,16.48,24.72c5.82,0,9.8-4.83,12.5-12.07c1.85,8.1,5.82,12.07,10.37,12.07c5.51,0,10.29-5.7,14.1-14.44
					c3.88,9.93,10.39,15.29,16.87,15.29c6.29,0,11.91-5.51,16.29-14.61c2.6,10.24,7.41,14.9,12.69,14.9
					c4.73,0,8.91-4.37,12.39-11.15c2.26,6.7,6.33,10.02,11.33,10.02c9.89,0,16.29-12.9,20.44-33.22c1.65-7.5,2.92-15,3.57-21.04
					h2.27c8.52,0,7.53,1.99,2.84,25c-3.27,15.91-2.27,30.26,9.8,30.26c4.84,0,8.86-3.82,12.16-10.18
					c3.56,6.38,9.27,10.18,15.97,10.18c13.64,0,25.14-16.62,29.12-44.74v-0.28C344.24,156.63,342.96,156.06,341.83,156.06z
					 M321.94,140.29c1.7,0,2.84,2.7,2.84,7.1c0,12.07-6.11,23.44-14.63,28.55C310.86,160.32,315.69,140.29,321.94,140.29z
					 M190.84,153.93c0.7-6.18,1.55-12.14,2.49-17.65c0.08-0.4,0.7-3.33,5.17-22.65c0.49-1.5,0.97-2.82,1.45-3.95
					c0.89-1.72,2.07-3.19,3.51-4.45c3.7,0.29,3.39,13.33,0.3,24.84c-3.27,12.36-8.1,25.28-13.78,35.79
					C189.98,162.31,190.41,158.19,190.84,153.93z M197.94,194.83c-4.55,0-7.39-6.96-7.95-18.47c5.64-7.94,11.58-19.48,15.91-31.59
					c0.39,0.26,0.85,0.48,1.41,0.62l3.69,0.99c-0.14,2.84-0.43,5.68-0.71,8.81c-0.86,9.62-0.82,17.64-0.12,24.2
					C206.8,188.64,202.47,194.83,197.94,194.83z"/>
			</g>
			<path class="white" d="M321.32,60.21c-13.16,20.76-39.79,18.91-64.58,15.61c14.92-6.99,22.94-19.89,18.1-46.92
				c-5.98-3.94-10.78-7.04-11.73-7.65c6.82,32.57-5.57,44.29-25.2,51.69c-8.2-1.35-15.8-2.34-22.5-2.58
				c-0.18,0.15-0.36,0.3-0.55,0.45c-2.03,1.71-4.1,3.87-6.2,6.35c4.78-0.3,10.18-0.01,16.08,0.71c-8.99,3.5-18.62,7.36-26.66,14.48
				c-3.22,5.41-6.31,11.32-9.11,17.41c13.25-20.46,36.54-23.14,54.59-29.01c25.28,4.19,55.55,11.33,76,0.96
				c7.18-8.63,9.02-17.32,9.02-17.32S325.53,62.69,321.32,60.21z"/>
		</g>
	</g>
</g>
</svg>
